
<svg width="800" height="430" xmlns="http://www.w3.org/2000/svg">
 <!-- Created with Method Draw - http://github.com/duopixel/Method-Draw/ -->

 <g>
  <title>background</title>
  <rect x="-1" y="-1" width="802" height="432" id="canvas_background" fill="none"/>
  <g id="canvasGrid" display="none">
   <rect id="svg_2" width="100%" height="100%" x="0" y="0" stroke-width="0" fill="url(#gridpattern)"/>
  </g>
 </g>
 <g>
  <title>Layer 1</title>
  <text fill="#e5e5e5" stroke="#000" stroke-width="0" x="99.75003" y="221.14167" id="svg_1" font-size="122" font-family= "'Calistoga', 'cursive'" text-anchor="start" xml:space="preserve" font-weight="normal" font-style="normal">v</text>
  <text fill="#e5e5e5" stroke="#000" stroke-width="0" x="275.75001" y="222.64166" id="svg_3" font-size="122" font-family="'Calistoga'" text-anchor="start" xml:space="preserve">u</text>
  <text fill="#e5e5e5" stroke="#000" stroke-width="0" x="461.74999" y="220.64167" id="svg_4" font-size="122" font-family="'Calistoga'" text-anchor="start" xml:space="preserve">e</text>
  <text fill="#7f0000" stroke="#7f0000" stroke-width="0" x="619.24998" y="227.14166" id="svg_5" font-size="162" font-family="'Calistoga','cursive'" text-anchor="start" xml:space="preserve">X</text>
  <metadata id="svg_74">image/svg+xml</metadata>
  <metadata>Created by potrace 1.15, written by Peter Selinger 2001-2017</metadata>
  <g id="svg_90">
   <g transform="matrix(0.0568204, 0, 0, -0.0612764, -121.585, 139.138)" fill="#000000" id="svg_88">
    <path d="m2886.13607,-491.40561l0,-1890l6355,0l6355,0l0,1890l0,1890l-6355,0l-6355,0l0,-1890zm419,1606c8,-9 11,-61 9,-162l-3,-149l-99,-3c-64,-2 -103,1 -112,9c-17,14 -20,269 -4,300c9,17 22,19 104,19c68,0 97,-4 105,-14zm639,2c18,-18 17,-292 -2,-307c-9,-8 -48,-11 -112,-9l-99,3l-3,149c-2,101 1,153 9,162c15,18 189,20 207,2zm630,4c9,-7 12,-46 10,-163l-3,-154l-100,-3c-85,-2 -102,0 -112,15c-9,11 -13,58 -13,149c0,166 -1,164 118,164c48,0 93,-4 100,-8zm640,-4c17,-17 17,-289 0,-306c-8,-8 -46,-12 -103,-12c-57,0 -95,4 -103,12c-8,8 -12,57 -12,153c0,96 4,145 12,153c16,16 190,16 206,0zm636,-4c21,-20 23,-270 3,-297c-10,-15 -27,-17 -112,-15l-100,3l-3,154c-2,117 1,156 10,163c7,4 52,8 100,8c66,0 90,-4 102,-16zm634,4c13,-13 18,-271 6,-302c-5,-13 -24,-16 -103,-16c-62,0 -101,4 -109,12c-17,17 -17,289 0,306c16,16 190,16 206,0zm642,-7c16,-31 13,-286 -4,-300c-9,-8 -48,-11 -112,-9l-99,3l-3,149c-2,101 1,153 9,162c8,10 37,14 105,14c82,0 95,-2 104,-19zm629,5c8,-9 11,-61 9,-162l-3,-149l-99,-3c-64,-2 -103,1 -112,9c-19,15 -20,289 -2,307c18,18 192,16 207,-2zm639,2c18,-18 17,-292 -2,-307c-9,-8 -48,-11 -112,-9l-99,3l-3,149c-2,101 1,153 9,162c15,18 189,20 207,2zm631,-2c8,-9 11,-61 9,-162l-3,-149l-100,-3c-85,-2 -102,0 -112,15c-16,21 -18,265 -3,294c9,17 22,19 104,19c68,0 97,-4 105,-14zm639,2c8,-8 12,-57 12,-153c0,-96 -4,-145 -12,-153c-8,-8 -47,-12 -109,-12c-79,0 -98,3 -103,16c-12,31 -7,289 6,302c16,16 190,16 206,0zm630,4c9,-7 12,-46 10,-163l-3,-154l-100,-3c-85,-2 -102,0 -112,15c-9,11 -13,58 -13,149c0,166 -1,164 118,164c48,0 93,-4 100,-8zm640,-4c8,-8 12,-57 12,-153c0,-96 -4,-145 -12,-153c-8,-8 -46,-12 -103,-12c-57,0 -95,4 -103,12c-8,8 -12,57 -12,153c0,96 4,145 12,153c16,16 190,16 206,0zm636,-4c21,-20 23,-270 3,-297c-10,-15 -27,-17 -112,-15l-100,3l-3,154c-2,117 1,156 10,163c7,4 52,8 100,8c66,0 90,-4 102,-16zm635,2c8,-9 11,-61 9,-162l-3,-149l-99,-3c-64,-2 -103,1 -112,9c-19,15 -20,289 -2,307c18,18 192,16 207,-2zm641,-5c16,-31 13,-286 -4,-300c-9,-8 -48,-11 -112,-9l-99,3l-3,149c-2,101 1,153 9,162c8,10 37,14 105,14c82,0 95,-2 104,-19zm629,5c8,-9 11,-61 9,-162l-3,-149l-99,-3c-64,-2 -103,1 -112,9c-17,14 -20,269 -4,300c9,17 22,19 104,19c68,0 97,-4 105,-14zm639,2c18,-18 17,-292 -2,-307c-9,-8 -48,-11 -112,-9l-99,3l-3,149c-2,101 1,153 9,162c15,18 189,20 207,2zm630,4c9,-7 12,-46 10,-163l-3,-154l-100,-3c-85,-2 -102,0 -112,15c-9,11 -13,58 -13,149c0,166 -1,164 118,164c48,0 93,-4 100,-8zm640,-4c17,-17 17,-289 0,-306c-8,-8 -46,-12 -103,-12c-57,0 -95,4 -103,12c-17,17 -17,289 0,306c16,16 190,16 206,0zm-9438,-1603l0,-1125l-1500,0l-1500,0l0,1123c0,618 2,1126 4,1128c2,2 677,3 1500,1l1496,-2l0,-1125zm3180,-1l0,-1124l-1502,2l-1503,3l-3,1122l-2,1123l1497,2c824,2 1501,2 1506,0c4,-2 7,-509 7,-1128zm3175,4l0,-1123l-1500,0l-1500,0l-3,1115c-1,613 0,1120 2,1125c2,7 510,9 1502,8l1499,-3l0,-1122zm3180,0l0,-1123l-1500,0l-1500,0l-3,1115c-1,613 0,1120 2,1125c2,7 510,9 1502,8l1499,-3l0,-1122zm-12177,-1320c8,-8 12,-58 12,-160c0,-174 4,-168 -116,-168c-113,0 -114,1 -114,171c0,171 -2,169 119,169c54,0 91,-4 99,-12zm636,-4c13,-12 16,-41 16,-154c0,-171 1,-170 -111,-170c-123,0 -119,-6 -119,168c0,102 4,152 12,160c19,19 183,16 202,-4zm634,4c8,-8 12,-58 12,-160c0,-173 3,-168 -112,-168c-116,0 -118,2 -118,167c0,173 0,173 120,173c53,0 91,-5 98,-12zm633,2c17,-10 19,-23 19,-160c0,-176 4,-170 -115,-170c-119,0 -115,-6 -115,170c0,131 2,150 18,159c22,14 168,14 193,1zm643,-12c13,-18 16,-51 16,-150c0,-162 -4,-168 -116,-168c-118,0 -114,-5 -114,168c0,102 4,152 12,160c8,8 45,12 99,12c79,0 89,-2 103,-22zm627,12c17,-10 19,-23 19,-160c0,-176 4,-170 -119,-170c-112,0 -111,-2 -111,175c0,127 2,145 18,154c22,14 168,14 193,1zm643,-6c13,-12 16,-41 16,-151c0,-172 -1,-173 -112,-173c-122,0 -118,-6 -118,168c0,102 4,152 12,160c19,19 183,16 202,-4zm634,4c8,-8 12,-58 12,-160c0,-174 4,-168 -119,-168c-112,0 -111,-1 -111,170c0,173 -2,170 119,170c54,0 91,-4 99,-12zm636,-4c13,-12 16,-41 16,-154c0,-171 1,-170 -111,-170c-123,0 -119,-6 -119,168c0,102 4,152 12,160c19,19 183,16 202,-4zm634,4c8,-8 12,-58 12,-160c0,-174 4,-168 -116,-168c-113,0 -114,1 -114,171c0,171 -2,169 119,169c54,0 91,-4 99,-12zm633,2c17,-10 19,-23 19,-155c0,-177 1,-175 -111,-175c-123,0 -119,-6 -119,170c0,131 2,150 18,159c22,14 168,14 193,1zm637,-2c8,-8 12,-58 12,-160c0,-173 4,-168 -114,-168c-112,0 -116,6 -116,168c0,170 1,172 119,172c54,0 91,-4 99,-12zm633,2c17,-10 19,-23 19,-160c0,-176 4,-170 -119,-170c-112,0 -111,-2 -111,175c0,127 2,145 18,154c22,14 168,14 193,1zm643,-6c13,-12 16,-41 16,-154c0,-168 -1,-170 -118,-170c-115,0 -112,-5 -112,168c0,102 4,152 12,160c19,19 183,16 202,-4zm634,4c8,-8 12,-58 12,-160c0,-174 4,-168 -119,-168c-112,0 -111,-1 -111,170c0,173 -2,170 119,170c54,0 91,-4 99,-12zm636,-4c13,-12 16,-41 16,-151c0,-172 -1,-173 -112,-173c-122,0 -118,-6 -118,168c0,102 4,152 12,160c19,19 183,16 202,-4zm634,4c8,-8 12,-58 12,-160c0,-174 4,-168 -116,-168c-113,0 -114,1 -114,171c0,171 -2,169 119,169c54,0 91,-4 99,-12zm636,-4c13,-12 16,-41 16,-154c0,-171 1,-170 -111,-170c-123,0 -119,-6 -119,168c0,102 4,152 12,160c19,19 183,16 202,-4zm634,4c8,-8 12,-58 12,-160c0,-173 4,-168 -114,-168c-112,0 -116,5 -116,172c0,168 0,168 120,168c53,0 91,-5 98,-12zm633,2c17,-10 19,-23 19,-160c0,-176 4,-170 -115,-170c-119,0 -115,-6 -115,170c0,131 2,150 18,159c22,14 168,14 193,1z" id="svg_89" fill="#e5e5e5"/>
   </g>
  </g>
  <text fill="#e5e5e5" stroke="#000" stroke-width="0" x="48.25004" y="378.99997" id="svg_91" font-size="122" font-family="'Special Elite','cursive'" text-anchor="start" xml:space="preserve" font-weight="normal" font-style="normal">c i n e m a s</text>
 </g>
</svg>